<svg width="305" height="271" viewBox="0 0 305 271" fill="none" xmlns="http://www.w3.org/2000/svg">
<g filter="url(#filter0_d_441_6256)">
<path d="M295 251C295 256.523 290.523 261 285 261H20C14.4771 261 10 256.523 10 251V69C10 63.4771 14.4772 59 20 59H49C54.5228 59 59 54.5228 59 49V20C59 14.4772 63.4772 10 69 10H285C290.523 10 295 14.4772 295 20V251Z" fill="white"/>
</g>
<rect x="11" y="10" width="49" height="49" rx="10" fill="#F8F8F8"/>
<rect x="11" y="10" width="40" height="40" rx="10" fill="#29B685" fill-opacity="0.2"/>
<path d="M27.72 25V22.42H32.54V37H29.66V25H27.72Z" fill="#29B685"/>
<defs>
<filter id="filter0_d_441_6256" x="0" y="0" width="305" height="271" filterUnits="userSpaceOnUse" color-interpolation-filters="sRGB">
<feFlood flood-opacity="0" result="BackgroundImageFix"/>
<feColorMatrix in="SourceAlpha" type="matrix" values="0 0 0 0 0 0 0 0 0 0 0 0 0 0 0 0 0 0 127 0" result="hardAlpha"/>
<feOffset/>
<feGaussianBlur stdDeviation="5"/>
<feComposite in2="hardAlpha" operator="out"/>
<feColorMatrix type="matrix" values="0 0 0 0 0 0 0 0 0 0 0 0 0 0 0 0 0 0 0.08 0"/>
<feBlend mode="normal" in2="BackgroundImageFix" result="effect1_dropShadow_441_6256"/>
<feBlend mode="normal" in="SourceGraphic" in2="effect1_dropShadow_441_6256" result="shape"/>
</filter>
</defs>
</svg>
