<svg width="305" height="271" viewBox="0 0 305 271" fill="none" xmlns="http://www.w3.org/2000/svg">
<g filter="url(#filter0_d_441_6257)">
<path d="M295 251C295 256.523 290.523 261 285 261H20C14.4771 261 10 256.523 10 251V69C10 63.4771 14.4772 59 20 59H49C54.5228 59 59 54.5228 59 49V20C59 14.4772 63.4772 10 69 10H285C290.523 10 295 14.4772 295 20V251Z" fill="white"/>
</g>
<rect x="11" y="10" width="49" height="49" rx="10" fill="#F8F8F8"/>
<rect x="11" y="10" width="40" height="40" rx="10" fill="#4C4EF6" fill-opacity="0.2"/>
<path d="M26.7501 20.5C26.7501 20.3011 26.6711 20.1103 26.5304 19.9697C26.3898 19.829 26.199 19.75 26.0001 19.75C25.8012 19.75 25.6104 19.829 25.4698 19.9697C25.3291 20.1103 25.2501 20.3011 25.2501 20.5V22.08C23.8101 22.195 22.8661 22.477 22.1721 23.172C21.4771 23.866 21.1951 24.811 21.0791 26.25H40.9211C40.8051 24.81 40.5231 23.866 39.8281 23.172C39.1341 22.477 38.1891 22.195 36.7501 22.079V20.5C36.7501 20.3011 36.6711 20.1103 36.5304 19.9697C36.3898 19.829 36.199 19.75 36.0001 19.75C35.8012 19.75 35.6104 19.829 35.4698 19.9697C35.3291 20.1103 35.2501 20.3011 35.2501 20.5V22.013C34.5851 22 33.8391 22 33.0001 22H29.0001C28.1611 22 27.4151 22 26.7501 22.013V20.5Z" fill="#4C4EF6"/>
<path fill-rule="evenodd" clip-rule="evenodd" d="M41 30C41 29.161 41 28.415 40.987 27.75H21.013C21 28.415 21 29.161 21 30V32C21 35.771 21 37.657 22.172 38.828C23.344 39.999 25.229 40 29 40H33C36.771 40 38.657 40 39.828 38.828C40.999 37.656 41 35.771 41 32V30ZM33 30.25C32.5359 30.25 32.0908 30.4344 31.7626 30.7626C31.4344 31.0908 31.25 31.5359 31.25 32V34C31.25 34.4641 31.4344 34.9092 31.7626 35.2374C32.0908 35.5656 32.5359 35.75 33 35.75C33.4641 35.75 33.9092 35.5656 34.2374 35.2374C34.5656 34.9092 34.75 34.4641 34.75 34V32C34.75 31.5359 34.5656 31.0908 34.2374 30.7626C33.9092 30.4344 33.4641 30.25 33 30.25ZM33 31.75C32.9337 31.75 32.8701 31.7763 32.8232 31.8232C32.7763 31.8701 32.75 31.9337 32.75 32V34C32.75 34.0663 32.7763 34.1299 32.8232 34.1768C32.8701 34.2237 32.9337 34.25 33 34.25C33.0663 34.25 33.1299 34.2237 33.1768 34.1768C33.2237 34.1299 33.25 34.0663 33.25 34V32C33.25 31.9337 33.2237 31.8701 33.1768 31.8232C33.1299 31.7763 33.0663 31.75 33 31.75ZM29.787 30.307C29.9241 30.3638 30.0412 30.4599 30.1236 30.5833C30.206 30.7066 30.25 30.8516 30.25 31V35C30.25 35.1989 30.171 35.3897 30.0303 35.5303C29.8897 35.671 29.6989 35.75 29.5 35.75C29.3011 35.75 29.1103 35.671 28.9697 35.5303C28.829 35.3897 28.75 35.1989 28.75 35V32.81L28.53 33.03C28.3878 33.1625 28.1998 33.2346 28.0055 33.2312C27.8112 33.2277 27.6258 33.149 27.4884 33.0116C27.351 32.8742 27.2723 32.6888 27.2688 32.4945C27.2654 32.3002 27.3375 32.1122 27.47 31.97L28.97 30.47C29.0748 30.3651 29.2084 30.2936 29.3538 30.2646C29.4992 30.2356 29.65 30.2504 29.787 30.307Z" fill="#4C4EF6"/>
<defs>
<filter id="filter0_d_441_6257" x="0" y="0" width="305" height="271" filterUnits="userSpaceOnUse" color-interpolation-filters="sRGB">
<feFlood flood-opacity="0" result="BackgroundImageFix"/>
<feColorMatrix in="SourceAlpha" type="matrix" values="0 0 0 0 0 0 0 0 0 0 0 0 0 0 0 0 0 0 127 0" result="hardAlpha"/>
<feOffset/>
<feGaussianBlur stdDeviation="5"/>
<feComposite in2="hardAlpha" operator="out"/>
<feColorMatrix type="matrix" values="0 0 0 0 0 0 0 0 0 0 0 0 0 0 0 0 0 0 0.08 0"/>
<feBlend mode="normal" in2="BackgroundImageFix" result="effect1_dropShadow_441_6257"/>
<feBlend mode="normal" in="SourceGraphic" in2="effect1_dropShadow_441_6257" result="shape"/>
</filter>
</defs>
</svg>
