<svg width="142" height="30" viewBox="0 0 142 30" fill="none" xmlns="http://www.w3.org/2000/svg">
<path d="M0.3125 23V1.125H4.71875V23H0.3125ZM6.40625 23V18.5938C6.86458 18.5938 7.29167 18.4062 7.6875 18.0312C7.97917 17.6979 8.13542 17.3021 8.15625 16.8438V7.28125C8.15625 6.86458 7.97917 6.45833 7.625 6.0625C7.29167 5.72917 6.88542 5.55208 6.40625 5.53125V1.125C8.71875 1.125 10.4688 2.15625 11.6562 4.21875C12.2604 5.28125 12.5625 6.30208 12.5625 7.28125V16.8438C12.5625 19.2188 11.5104 20.9896 9.40625 22.1562C8.36458 22.7188 7.36458 23 6.40625 23ZM14.9375 18.1562V9.96875C14.9583 8.94792 15.4271 7.94792 16.3438 6.96875C17.4688 5.80208 18.8438 5.20833 20.4688 5.1875V9.125C19.8646 9.125 19.4479 9.38542 19.2188 9.90625C19.1562 10.0312 19.125 10.1458 19.125 10.25V11.8125H23.7812V10.2812C23.7604 9.51042 23.2188 9.125 22.1562 9.125V5.1875C23.6771 5.1875 25.0104 5.70833 26.1562 6.75C27.1562 7.66667 27.6667 8.72917 27.6875 9.9375V15.8438H19.125V18.1562C19.2708 18.7604 19.7292 19.0938 20.5 19.1562V23C18.5417 23 16.9896 22.1979 15.8438 20.5938C15.2396 19.7396 14.9375 18.9271 14.9375 18.1562ZM22.1562 23V19.1875C23.2812 19.1667 24 18.6354 24.3125 17.5938L27.7188 18.875C27.4062 20.2083 26.6146 21.2812 25.3438 22.0938C24.3646 22.6979 23.3021 23 22.1562 23ZM30.0938 23V10.0312C30.0938 8.98958 30.5625 7.96875 31.5 6.96875C32.6458 5.78125 34.0729 5.17708 35.7812 5.15625V9.3125C34.9062 9.41667 34.4271 9.82292 34.3438 10.5312V23H30.0938ZM37.2188 9.3125V5.15625C39.2396 5.15625 40.8333 5.95833 42 7.5625C42.625 8.4375 42.9375 9.26042 42.9375 10.0312V23H38.6875V10.5312C38.6875 9.84375 38.3021 9.44792 37.5312 9.34375C37.4271 9.32292 37.3229 9.3125 37.2188 9.3125ZM44.5625 9.21875V5.1875H46.75V0.625H50.9375V5.1875H53V9.25H50.9375V17.5312C50.9792 18.2812 51.3646 18.6667 52.0938 18.6875H53L53.9375 23H52.0625C49.3333 23 47.6667 21.9688 47.0625 19.9062C46.8542 19.1562 46.75 18.2604 46.75 17.2188V9.21875H44.5625ZM55.8125 2.65625C55.8125 1.80208 56.1979 1.15625 56.9688 0.71875C57.3229 0.510417 57.6979 0.40625 58.0938 0.40625C58.9688 0.40625 59.625 0.791667 60.0625 1.5625C60.25 1.91667 60.3438 2.28125 60.3438 2.65625C60.3438 3.53125 59.9583 4.1875 59.1875 4.625C58.8333 4.8125 58.4688 4.90625 58.0938 4.90625C57.1979 4.90625 56.5312 4.51042 56.0938 3.71875C55.9062 3.38542 55.8125 3.03125 55.8125 2.65625ZM56.0312 23V6.125H60.2188V23H56.0312ZM62.5312 18.3125L66.4062 17.5938C66.4062 18.2812 66.7604 18.7708 67.4688 19.0625C67.7188 19.1458 67.9479 19.1979 68.1562 19.2188V23.1562C65.7396 23.1562 64.0625 22.3021 63.125 20.5938C62.7292 19.8854 62.5312 19.125 62.5312 18.3125ZM62.7188 10.0625C62.7188 8.125 63.625 6.6875 65.4375 5.75C66.3333 5.27083 67.2188 5.03125 68.0938 5.03125V8.90625C67.0729 8.92708 66.5625 9.3125 66.5625 10.0625C66.5625 10.8542 67.5208 11.5521 69.4375 12.1562C70.1458 12.3854 70.9792 12.6042 71.9375 12.8125C73.375 13.0833 74.3958 13.8854 75 15.2188C75.3125 15.9062 75.4688 16.6667 75.4688 17.5C75.4688 19.6667 74.6146 21.2604 72.9062 22.2812C71.9271 22.8646 70.8125 23.1562 69.5625 23.1562V19.2188C70.2917 19.2188 70.8333 18.9792 71.1875 18.5C71.3542 18.2708 71.4375 18.0208 71.4375 17.75C71.4375 17.1042 70.6458 16.5417 69.0625 16.0625C68.8125 16 68.4271 15.8958 67.9062 15.75C66.8021 15.4583 66.0417 15.2188 65.625 15.0312C64.1042 14.2604 63.1875 13.125 62.875 11.625C62.7708 11.125 62.7188 10.6042 62.7188 10.0625ZM69.5 8.90625L69.5312 5.03125C71.4062 5.03125 72.9167 5.71875 74.0625 7.09375C74.7917 7.98958 75.1562 8.9375 75.1562 9.9375L71.3125 10.5938C71.3125 9.65625 70.8125 9.10417 69.8125 8.9375C69.6875 8.91667 69.5833 8.90625 69.5 8.90625ZM76.5312 9.21875V5.1875H78.7188V0.625H82.9062V5.1875H84.9688V9.25H82.9062V17.5312C82.9479 18.2812 83.3333 18.6667 84.0625 18.6875H84.9688L85.9062 23H84.0312C81.3021 23 79.6354 21.9688 79.0312 19.9062C78.8229 19.1562 78.7188 18.2604 78.7188 17.2188V9.21875H76.5312ZM87.5312 23V5.1875H91.7812V7.15625C92.5104 6.21875 93.5 5.57292 94.75 5.21875C95.1875 5.09375 95.625 5.03125 96.0625 5.03125H97.1875L96.2188 9.21875C94.9062 9.23958 93.7708 9.8125 92.8125 10.9375C92.125 11.75 91.7812 12.5938 91.7812 13.4688V23H87.5312ZM97.7188 5.1875H102.219L106.375 19.0625L102.969 29.25H98.6562L101.781 19L97.7188 5.1875ZM105.031 9.375L106.344 5.1875H110.844L107.312 15.75H106.906L105.031 9.375ZM119.438 23.0312V18.9688C120.229 18.9062 120.802 18.4479 121.156 17.5938C121.406 16.9688 121.531 15.7812 121.531 14.0312C120.948 14.3021 120.25 14.4375 119.438 14.4375V10.375C119.625 10.3125 119.823 10.2292 120.031 10.125C120.823 9.64583 121.219 8.86458 121.219 7.78125C121.219 7.57292 121.198 7.36458 121.156 7.15625C120.948 6.09375 120.375 5.4375 119.438 5.1875V1.125C120.75 1.125 121.865 1.46875 122.781 2.15625C124.76 3.65625 125.75 7.05208 125.75 12.3438C125.75 12.7188 125.75 13.0729 125.75 13.4062C125.604 19.8229 123.5 23.0312 119.438 23.0312ZM117.75 14.4375C116.354 14.4375 115.156 14.0521 114.156 13.2812C112.615 12.0521 111.844 10.2083 111.844 7.75C111.844 6.04167 112.333 4.5625 113.312 3.3125C114.479 1.85417 115.958 1.125 117.75 1.125V5.1875C117.583 5.22917 117.417 5.30208 117.25 5.40625C116.396 5.86458 115.969 6.65625 115.969 7.78125C115.969 7.98958 115.99 8.20833 116.031 8.4375C116.26 9.47917 116.833 10.125 117.75 10.375V14.4375ZM112.594 19.7188L115.906 17.4688C115.969 17.6146 116.052 17.7708 116.156 17.9375C116.573 18.6042 117.104 18.9479 117.75 18.9688V23.0312C115.521 22.9479 113.802 21.8438 112.594 19.7188ZM135.219 23.0312V18.9688C136.01 18.9062 136.583 18.4479 136.938 17.5938C137.188 16.9688 137.312 15.7812 137.312 14.0312C136.729 14.3021 136.031 14.4375 135.219 14.4375V10.375C135.406 10.3125 135.604 10.2292 135.812 10.125C136.604 9.64583 137 8.86458 137 7.78125C137 7.57292 136.979 7.36458 136.938 7.15625C136.729 6.09375 136.156 5.4375 135.219 5.1875V1.125C136.531 1.125 137.646 1.46875 138.562 2.15625C140.542 3.65625 141.531 7.05208 141.531 12.3438C141.531 12.7188 141.531 13.0729 141.531 13.4062C141.385 19.8229 139.281 23.0312 135.219 23.0312ZM133.531 14.4375C132.135 14.4375 130.938 14.0521 129.938 13.2812C128.396 12.0521 127.625 10.2083 127.625 7.75C127.625 6.04167 128.115 4.5625 129.094 3.3125C130.26 1.85417 131.74 1.125 133.531 1.125V5.1875C133.365 5.22917 133.198 5.30208 133.031 5.40625C132.177 5.86458 131.75 6.65625 131.75 7.78125C131.75 7.98958 131.771 8.20833 131.812 8.4375C132.042 9.47917 132.615 10.125 133.531 10.375V14.4375ZM128.375 19.7188L131.688 17.4688C131.75 17.6146 131.833 17.7708 131.938 17.9375C132.354 18.6042 132.885 18.9479 133.531 18.9688V23.0312C131.302 22.9479 129.583 21.8438 128.375 19.7188Z" fill="#33C92D"/>
</svg>
