<svg width="23" height="24" viewBox="0 0 23 24" fill="none" xmlns="http://www.w3.org/2000/svg">
<path d="M20.2598 12.7501H17.3848C17.0035 12.7501 16.6379 12.9081 16.3683 13.1894C16.0987 13.4707 15.9473 13.8522 15.9473 14.2501V18.0001C15.9473 18.3979 16.0987 18.7794 16.3683 19.0607C16.6379 19.342 17.0035 19.5001 17.3848 19.5001H18.8223C19.2035 19.5001 19.5691 19.342 19.8387 19.0607C20.1083 18.7794 20.2598 18.3979 20.2598 18.0001V12.7501ZM20.2598 12.7501C20.2598 11.5618 20.0344 10.3854 19.5964 9.28851C19.1585 8.19166 18.5167 7.19616 17.7082 6.35944C16.8997 5.52273 15.9404 4.86136 14.8856 4.41351C13.8309 3.96565 12.7016 3.74017 11.5629 3.75007C10.425 3.74141 9.29663 3.96781 8.24293 4.41623C7.18923 4.86464 6.23098 5.5262 5.4234 6.36279C4.61582 7.19938 3.97488 8.19446 3.5375 9.29069C3.10013 10.3869 2.87497 11.5626 2.875 12.7501V18.0001C2.875 18.3979 3.02645 18.7794 3.29603 19.0607C3.56562 19.342 3.93125 19.5001 4.3125 19.5001H5.75C6.13125 19.5001 6.49688 19.342 6.76647 19.0607C7.03605 18.7794 7.1875 18.3979 7.1875 18.0001V14.2501C7.1875 13.8522 7.03605 13.4707 6.76647 13.1894C6.49688 12.9081 6.13125 12.7501 5.75 12.7501H2.875" stroke="#FD0A5A" stroke-width="1.5" stroke-linecap="round" stroke-linejoin="round"/>
</svg>
