<svg width="34" height="24" viewBox="0 0 34 24" fill="none" xmlns="http://www.w3.org/2000/svg">
<path d="M4 1.2334H30C31.933 1.2334 33.5 2.8004 33.5 4.7334V19.2666C33.4998 21.1995 31.9329 22.7666 30 22.7666H4C2.0671 22.7666 0.500154 21.1995 0.5 19.2666V4.7334L0.504883 4.55371C0.598423 2.70423 2.12728 1.2334 4 1.2334Z" fill="white" stroke="#EEEEEE"/>
<path fill-rule="evenodd" clip-rule="evenodd" d="M15.0897 11.8488C15.0897 9.96744 15.9384 8.29236 17.2598 7.20833C16.2854 6.40897 15.0545 5.93042 13.7149 5.93042C10.5587 5.93042 8 8.58022 8 11.8488C8 15.1175 10.5587 17.7673 13.7149 17.7673C15.0545 17.7673 16.2854 17.2887 17.2598 16.4894C15.9384 15.4053 15.0897 13.7303 15.0897 11.8488Z" fill="#EB001B"/>
<path fill-rule="evenodd" clip-rule="evenodd" d="M15.0898 11.8488C15.0898 13.7302 15.9385 15.4053 17.26 16.4894C18.5813 15.4053 19.43 13.7302 19.43 11.8488C19.43 9.96742 18.5813 8.29234 17.26 7.20831C15.9385 8.29234 15.0898 9.96742 15.0898 11.8488Z" fill="#FF5E00"/>
<path fill-rule="evenodd" clip-rule="evenodd" d="M20.8046 5.93042C19.465 5.93042 18.2341 6.40897 17.2598 7.20833C18.5811 8.29243 19.4298 9.96744 19.4298 11.8488C19.4298 13.7303 18.5811 15.4053 17.2598 16.4894C18.2341 17.2887 19.465 17.7673 20.8046 17.7673C23.9608 17.7673 26.5195 15.1175 26.5195 11.8488C26.5195 8.58022 23.9608 5.93042 20.8046 5.93042Z" fill="#F79E1C"/>
</svg>
