<svg width="34" height="24" viewBox="0 0 34 24" fill="none" xmlns="http://www.w3.org/2000/svg">
<path d="M4 1.2334H30C31.933 1.2334 33.5 2.8004 33.5 4.7334V19.2666C33.4998 21.1995 31.9329 22.7666 30 22.7666H4C2.0671 22.7666 0.500154 21.1995 0.5 19.2666V4.7334L0.504883 4.55371C0.598423 2.70423 2.12728 1.2334 4 1.2334Z" fill="white" stroke="#EEEEEE"/>
<path d="M21.099 5.91169C20.4616 5.15481 19.3092 4.83032 17.835 4.83032H13.5563C13.255 4.83033 12.9984 5.05856 12.9512 5.36855L11.1697 17.1381C11.1343 17.3702 11.3068 17.5803 11.5326 17.5803H14.1741L14.8375 13.1973L14.8169 13.3346C14.8641 13.0248 15.1185 12.7963 15.4197 12.7963H16.6749C19.1408 12.7963 21.0716 11.753 21.6357 8.73495C21.6524 8.64569 21.6669 8.55881 21.6794 8.47393C21.6083 8.43467 21.6083 8.43467 21.6794 8.47393C21.8474 7.35844 21.6783 6.59913 21.099 5.91169Z" fill="#27346A"/>
<path d="M15.8482 8.0721C15.9204 8.03628 15.9994 8.01772 16.0794 8.01777H19.4337C19.8309 8.01777 20.2014 8.04469 20.54 8.10145C20.6347 8.11719 20.729 8.13597 20.8226 8.15778C20.9553 8.18828 21.0864 8.22561 21.2156 8.26963C21.382 8.32753 21.537 8.39497 21.6795 8.47393C21.8474 7.35801 21.6783 6.59913 21.099 5.91169C20.4612 5.15481 19.3092 4.83032 17.835 4.83032H13.556C13.2547 4.83032 12.9984 5.05879 12.9512 5.36855L11.1697 17.1377C11.1343 17.3701 11.3068 17.58 11.5322 17.58H14.1741L15.5504 8.48861C15.5779 8.30721 15.6892 8.15148 15.8482 8.0721Z" fill="#27346A"/>
<path d="M21.6354 8.73483C21.0713 11.7524 19.1406 12.7961 16.6746 12.7961H15.4191C15.1178 12.7961 14.8634 13.0247 14.8166 13.3345L13.9913 18.7842C13.9605 18.9873 14.1113 19.1714 14.3086 19.1714H16.5352C16.7988 19.1713 17.0231 18.9716 17.0643 18.7005L17.0859 18.5823L17.5056 15.8118L17.5327 15.6587C17.5738 15.3876 17.7981 15.1879 18.0616 15.1878H18.3949C20.5519 15.1878 22.2409 14.275 22.7344 11.6351C22.9404 10.5318 22.8338 9.61071 22.2889 8.96372C22.1236 8.76776 21.9183 8.60592 21.6791 8.47382C21.6662 8.55912 21.6522 8.64557 21.6354 8.73483Z" fill="#2790C3"/>
<path d="M21.0893 8.22865C21.0014 8.2019 20.9126 8.17822 20.8231 8.15764C20.7295 8.13619 20.6352 8.11753 20.5405 8.10169C20.2016 8.04455 19.8314 8.01758 19.4338 8.01758H16.0799C15.9998 8.01739 15.9208 8.03611 15.8487 8.07234C15.6895 8.15148 15.5781 8.30733 15.5509 8.48885L14.838 13.1972L14.8174 13.3345C14.8643 13.0246 15.1187 12.7961 15.4199 12.7961H16.6755C19.1414 12.7961 21.0722 11.7528 21.6362 8.73481C21.653 8.64555 21.6671 8.55905 21.68 8.47379C21.5372 8.39526 21.3826 8.32739 21.2161 8.26987C21.1741 8.25537 21.1318 8.24162 21.0894 8.22865" fill="#1F264F"/>
</svg>
