<svg width="305" height="271" viewBox="0 0 305 271" fill="none" xmlns="http://www.w3.org/2000/svg">
<g filter="url(#filter0_d_441_6267)">
<path d="M295 251C295 256.523 290.523 261 285 261H20C14.4771 261 10 256.523 10 251V69C10 63.4771 14.4772 59 20 59H49C54.5228 59 59 54.5228 59 49V20C59 14.4772 63.4772 10 69 10H285C290.523 10 295 14.4772 295 20V251Z" fill="white"/>
</g>
<rect x="11" y="10" width="49" height="49" rx="10" fill="#F8F8F8"/>
<rect x="11" y="10" width="40" height="40" rx="10" fill="#FC6B05" fill-opacity="0.2"/>
<path d="M35.2186 37C34.6086 37 33.7517 36.7793 32.4686 36.0625C30.9083 35.1875 29.7014 34.3796 28.1495 32.8318C26.6533 31.3365 25.9252 30.3684 24.9061 28.514C23.7549 26.4203 23.9511 25.3228 24.1705 24.8537C24.4317 24.2931 24.8174 23.9578 25.3158 23.625C25.5989 23.4395 25.8985 23.2805 26.2108 23.15C26.242 23.1365 26.2711 23.1237 26.297 23.1121C26.4517 23.0425 26.6861 22.9371 26.983 23.0496C27.1811 23.124 27.358 23.2762 27.6349 23.5496C28.2027 24.1096 28.9786 25.3568 29.2649 25.9693C29.457 26.3821 29.5842 26.6546 29.5845 26.9603C29.5845 27.3181 29.4045 27.594 29.1861 27.8918C29.1452 27.9478 29.1045 28.0012 29.0652 28.0531C28.8274 28.3656 28.7752 28.4559 28.8095 28.6171C28.8792 28.9412 29.3989 29.9059 30.253 30.7581C31.107 31.6103 32.0439 32.0971 32.3692 32.1665C32.5374 32.2025 32.6295 32.1481 32.952 31.9018C32.9983 31.8665 33.0458 31.83 33.0955 31.7934C33.4286 31.5456 33.6917 31.3703 34.0411 31.3703H34.043C34.347 31.3703 34.6074 31.5021 35.0386 31.7196C35.6011 32.0034 36.8858 32.7693 37.4492 33.3378C37.7233 33.614 37.8761 33.7903 37.9508 33.9881C38.0633 34.2859 37.9574 34.5193 37.8883 34.6756C37.8767 34.7015 37.8639 34.73 37.8505 34.7615C37.7189 35.0732 37.559 35.3722 37.3727 35.6546C37.0405 36.1515 36.7039 36.5362 36.142 36.7978C35.8535 36.9343 35.5378 37.0034 35.2186 37Z" fill="#FC6B05"/>
<defs>
<filter id="filter0_d_441_6267" x="0" y="0" width="305" height="271" filterUnits="userSpaceOnUse" color-interpolation-filters="sRGB">
<feFlood flood-opacity="0" result="BackgroundImageFix"/>
<feColorMatrix in="SourceAlpha" type="matrix" values="0 0 0 0 0 0 0 0 0 0 0 0 0 0 0 0 0 0 127 0" result="hardAlpha"/>
<feOffset/>
<feGaussianBlur stdDeviation="5"/>
<feComposite in2="hardAlpha" operator="out"/>
<feColorMatrix type="matrix" values="0 0 0 0 0 0 0 0 0 0 0 0 0 0 0 0 0 0 0.08 0"/>
<feBlend mode="normal" in2="BackgroundImageFix" result="effect1_dropShadow_441_6267"/>
<feBlend mode="normal" in="SourceGraphic" in2="effect1_dropShadow_441_6267" result="shape"/>
</filter>
</defs>
</svg>
