<svg width="34" height="24" viewBox="0 0 34 24" fill="none" xmlns="http://www.w3.org/2000/svg">
<path d="M4 1.2334H30C31.933 1.2334 33.5 2.8004 33.5 4.7334V19.2666C33.4998 21.1995 31.9329 22.7666 30 22.7666H4C2.0671 22.7666 0.500154 21.1995 0.5 19.2666V4.7334L0.504883 4.55371C0.598423 2.70423 2.12728 1.2334 4 1.2334Z" fill="white" stroke="#EEEEEE"/>
<path fill-rule="evenodd" clip-rule="evenodd" d="M21.361 8.24541L21.0832 9.93207C20.2502 9.4499 18.3544 9.33582 18.3542 10.2239C18.3542 10.5767 18.7831 10.8193 19.3001 11.1118C20.0842 11.5553 21.0708 12.1134 21.0708 13.344C21.0708 15.3106 19.0668 16.0331 17.7384 16.0331C16.4104 16.0331 15.5412 15.5896 15.5412 15.5896L15.8306 13.826C16.6276 14.4981 19.0426 14.6891 19.0426 13.6233C19.0426 13.1754 18.5672 12.9113 18.0159 12.605C17.2553 12.1824 16.3502 11.6796 16.3502 10.5031C16.3502 8.34647 18.6442 7.90295 19.6102 7.90295C20.5038 7.90295 21.361 8.24541 21.361 8.24541ZM27.856 15.8976H26.0686L25.8406 14.7309H23.366L22.9602 15.8976H20.931L23.8342 8.62842C23.8342 8.62842 24.0102 8.04309 24.7328 8.04309H26.2976L27.856 15.8976ZM10.7576 8.0433L8.9018 13.4455L8.6822 12.2822L8.6824 12.2826L8.0274 8.75049C8.0274 8.75049 7.9482 8.0433 7.104 8.0433H4.036L4 8.17629C4 8.17629 4.9382 8.38135 6.0362 9.07404L7.7274 15.8978H9.7556L12.8526 8.0433H10.7576ZM14.3418 15.8976H12.3952L13.6118 8.0433H15.5586L14.3418 15.8976ZM23.9266 13.1192L24.9494 10.18L25.5248 13.1192H23.9266Z" fill="#2566AF"/>
<path d="M8.6824 12.2824L8.0274 8.75028C8.0274 8.75028 7.9482 8.04309 7.104 8.04309H4.036L4 8.17608C4 8.17608 5.4746 8.49711 6.889 9.69992C8.2414 10.8496 8.6824 12.2824 8.6824 12.2824Z" fill="#E6A540"/>
</svg>
